# AST/ASF file generated using VICON BodyLanguage
# -----------------------------------------------
:version 1.10
:name VICON
:units
  mass 1.0
  length 0.45
  angle deg
:documentation
   .ast/.asf automatically generated from VICON data using
   VICON BodyBuilder and BodyLanguage model FoxedUp or BRILLIANT.MOD
:root
   order TX TY TZ RX RY RZ
   axis XYZ
   position 0 0 0  
   orientation 0 0 0 
:bonedata
  begin
     id 1 
     name lhipjoint
     direction 0.521452 -0.77106 0.36545 
     length 2.0933 
     axis 0 0 0  XYZ
  end
  begin
     id 2 
     name lfemur
     direction 0.34202 -0.939693 0  
     length 6.83441  
     axis 0 0 20  XYZ
    dof rx ry rz
    limits (-160.0 20.0)
           (-70.0 70.0)
           (-60.0 70.0)
  end
  begin
     id 3 
     name ltibia
     direction 0.34202 -0.939693 0   
     length 7.28749   
     axis 0 0 20   XYZ
    dof rx
    limits (-10.0 170.0)
  end
  begin
     id 4 
     name lfoot
     direction 0.100608 -0.276418 0.955757   
     length 1.52195   
     axis -90 7.62852e-016 20   XYZ
    dof rx rz
    limits (-45.0 90.0)
           (-70.0 20.0)
  end
  begin
     id 5 
     name ltoes
     direction 1.53558e-011 -4.21907e-011 1   
     length 0.770459   
     axis -90 7.62852e-016 20   XYZ
    dof rx
    limits (-90.0 20.0)
  end
  begin
     id 6 
     name rhipjoint
     direction -0.488071 -0.788702 0.373812   
     length 2.04648  
     axis 0 0 0  XYZ 
  end
  begin
     id 7 
     name rfemur
     direction -0.34202 -0.939693 0   
     length 6.92583   
     axis 0 0 -20   XYZ
    dof rx ry rz
    limits (-160.0 20.0)
           (-70.0 70.0)
           (-70.0 60.0)
  end
  begin
     id 8 
     name rtibia
     direction -0.34202 -0.939693 0   
     length 7.41043   
     axis 0 0 -20   XYZ
    dof rx
    limits (-10.0 170.0)
 end
 begin
     id 9 
     name rfoot
     direction -0.0784433 -0.215521 0.973343   
     length 1.67708  
     axis -90 -7.62852e-016 -20   XYZ
    dof rx rz
    limits (-45.0 90.0)
           (-20.0 70.0)
  end
  begin
     id 10 
     name rtoes
     direction -1.53551e-011 -4.21842e-011 1   
     length 0.849787   
     axis -90 -7.62852e-016 -20   XYZ
    dof rx
    limits (-90.0 20.0)
  end
  begin
     id 11 
     name lowerback
     direction -0.0122332 0.997575 -0.0685192   
     length 1.98724   
     axis 0 0 0   XYZ
    dof rx ry rz
    limits (-20.0 45.0)
           (-30.0 30.0)
           (-30.0 30.0)
  end
  begin
     id 12 
     name upperback
     direction 0.0182347 0.999724 -0.0148421   
     length 1.99029   
     axis 0 0 0   XYZ
    dof rx ry rz
    limits (-20.0 45.0)
           (-30.0 30.0)
           (-30.0 30.0)
  end
  begin
     id 13 
     name thorax
     direction 0.0242908 0.99956 0.0170184   
     length 1.99573   
     axis 0 0 0   XYZ
    dof rx ry rz
    limits (-20.0 45.0)
           (-30.0 30.0)
           (-30.0 30.0)
  end
  begin
     id 14 
     name lowerneck
     direction 0.0654488 0.985533 0.156338   
     length 1.4285   
     axis 0 0 0   XYZ
    dof rx ry rz
    limits (-20.0 45.0)
           (-30.0 30.0)
           (-30.0 30.0)
  end
  begin
     id 15 
     name upperneck
     direction -0.02953 0.998556 -0.0448842   
     length 1.44709   
     axis 0 0 0   XYZ
    dof rx ry rz
    limits (-20.0 45.0)
           (-30.0 30.0)
           (-30.0 30.0)
  end
  begin
     id 16
     name head
     direction -0.0155588 0.999386 -0.0314063  
     length 1.44689  
     axis 0 0 0   XYZ
    dof rx ry rz
    limits (-20.0 45.0)
           (-30.0 30.0)
           (-30.0 30.0)
  end
  begin
     id 17 
     name lclavicle
     direction 0.968229 0.236071 -0.0824755  
     length 3.60593  
     axis 0 0 0   XYZ
    dof ry rz
    limits (-20.0 10.0)
           (0.0 20.0)
  end
  begin
     id 18 
     name lhumerus
     direction 1 -4.48968e-011 7.8138e-029   
     length 5.06035   
     axis 180 -30 -90   XYZ
    dof rx ry rz
    limits (-60.0 90.0)
           (-90.0 90.0)
           (-90.0 90.0)
  end
  begin
     id 19
     name lradius
     direction 1 -4.48967e-011 9.02887e-028   
     length 3.1478   
     axis 180 -30 -90   XYZ
    dof rx
    limits (-10.0 170.0)
  end
  begin
     id 20
     name lwrist
     direction 1 -4.48961e-011 7.20928e-028   
     length 1.5739   
     axis -5.52449e-016 90 90   XYZ
    dof ry
    limits (-180.0 0.0)
 end
  begin
     id 21 
     name lhand
     direction 1 -4.48972e-011 1.44186e-027   
     length 0.606747   
     axis -9.20027e-016 90 90   XYZ
    dof rx rz
    limits (-90.0 90.0)
           (-45.0 45.0)
  end
  begin
     id 22 
     name lfingers
     direction 1 -4.48943e-011 2.88371e-027   
     length 0.489175   
     axis -1.84005e-015 90 90   XYZ
    dof rx
    limits (0.0 90.0)
  end
  begin
     id 23
     name lthumb
     direction 0.707107 -6.34917e-011 0.707107   
     length 0.70236   
     axis -90 45 2.85299e-015   XYZ
    dof rx rz
    limits (-45.0 45.0)
           (-45.0 45.0)
  end
  begin
     id 24 
     name rclavicle
     direction -0.978165 0.207816 0.0022268   
     length 3.35425  
     axis 0 0 0   XYZ 
    dof ry rz
    limits (-10.0 20.0)
           (-20.0 0.0)
  end
  begin
     id 25 
     name rhumerus
     direction -1 -4.48964e-011 -4.02159e-027  
     length 5.12273   
     axis 180 30 90   XYZ
    dof rx ry rz
    limits (-90.0 60.0)
           (-90.0 90.0)
           (-90.0 90.0)
  end
  begin
     id 26 
     name rradius
     direction -1 -4.48966e-011 1.62746e-027   
     length 3.422   
     axis 180 30 90   XYZ
    dof rx
    limits (-10.0 170.0)
  end
  begin
     id 27 
     name rwrist
     direction -1 -4.4896e-011 7.20928e-028   
     length 1.711   
     axis -5.52449e-016 -90 -90   XYZ
    dof ry
    limits (-180.0 0.0)
  end
  begin
     id 28
     name rhand
     direction -1 -4.48979e-011 1.44186e-027   
     length 0.704599   
     axis -9.20027e-016 -90 -90   XYZ
    dof rx rz
    limits (-90.0 90.0)
           (-45.0 45.0)
  end
  begin
     id 29
     name rfingers
     direction -1 -4.48962e-011 2.88371e-027   
     length 0.568066   
     axis -1.84005e-015 -90 -90   XYZ
    dof rx
    limits (0.0 90.0)
  end
  begin
     id 30
     name rthumb
     direction -0.707107 -6.34949e-011 0.707107   
     length 0.815633   
     axis -90 -45 -2.85299e-015   XYZ
    dof rx rz
    limits (-45.0 45.0)
           (-45.0 45.0)
  end
:hierarchy
  begin
    root lhipjoint rhipjoint lowerback
    lhipjoint lfemur
    lfemur ltibia
    ltibia lfoot
    lfoot ltoes
    rhipjoint rfemur
    rfemur rtibia
    rtibia rfoot
    rfoot rtoes
    lowerback upperback
    upperback thorax
    thorax lowerneck lclavicle rclavicle
    lowerneck upperneck
    upperneck head
    lclavicle lhumerus
    lhumerus lradius
    lradius lwrist
    lwrist lhand lthumb
    lhand lfingers
    rclavicle rhumerus
    rhumerus rradius
    rradius rwrist
    rwrist rhand rthumb
    rhand rfingers
  end

#!OML:ASF E:\id_vita\Project 1\Capture day 1\Session 1\Male1.ASF
:FULLY-SPECIFIED
:DEGREES
487
root 38.4629 13.6074 -0.0674288 -119.527 -82.0772 165.49
lowerback 25.1998 -1.84611 -2.60695
upperback 9.04327 -3.60871 0.586522
thorax -3.78214 -2.06362 3.13105
lowerneck -14.7885 -0.115848 -5.68174
upperneck 35.4881 3.35123 -10.2996
head 15.0883 -1.07943 -2.85077
rclavicle -2.8625e-014 -6.16232e-015
rhumerus 60.4616 19.7545 -62.4758
rradius 26.1885
rwrist 33.5478
rhand -24.8722 33.0469
rfingers 7.12502
rthumb 1.63504 3.07344
lclavicle -2.8625e-014 -6.16232e-015
lhumerus 56.7557 -14.7007 37.6787
lradius 24.5363
lwrist -17.2668
lhand -41.4753 84.8708
lfingers 7.12502
lthumb -14.3897 245.648
rfemur -22.4593 1.37899 17.4981
rtibia 38.5443
rfoot -35.6034 -19.6504
rtoes -27.414
lfemur -81.464 -0.0557262 -23.4692
ltibia 82.4355
lfoot -39.4547 11.7478
ltoes -7.3631
488
root 38.4344 13.5957 -0.0683681 -120.672 -82.152 166.643
lowerback 25.2183 -1.87076 -2.40506
upperback 9.01897 -3.5881 0.659158
thorax -3.8268 -2.05034 3.09153
lowerneck -14.8999 -0.132287 -5.86364
upperneck 35.6009 3.37965 -10.2586
head 15.1704 -1.09631 -2.80696
rclavicle 7.15625e-015 2.40529e-014
rhumerus 60.7489 19.934 -61.909
rradius 26.1368
rwrist 32.8948
rhand -24.8159 32.8343
rfingers 7.12502
rthumb 1.68934 2.86125
lclavicle 7.15625e-015 2.40529e-014
lhumerus 56.766 -14.8518 37.1822
lradius 24.6795
lwrist -16.6936
lhand -41.7259 85.423
lfingers 7.12502
lthumb -14.6311 245.113
rfemur -22.1665 1.24755 17.6417
rtibia 38.2042
rfoot -35.6697 -19.2716
rtoes -27.1429
lfemur -81.5093 0.0122877 -23.3002
ltibia 82.7524
lfoot -39.4215 11.7634
ltoes -8.36918
489
root 38.406 13.5857 -0.0702485 -121.463 -82.1564 167.506
lowerback 25.145 -1.86638 -2.31884
upperback 8.96653 -3.55086 0.745594
thorax -3.8505 -2.02966 3.12416
lowerneck -14.9445 -0.169561 -6.05389
upperneck 35.7101 3.39034 -10.2925
head 15.238 -1.1307 -2.79562
rclavicle -1.74931e-014 6.55989e-015
rhumerus 60.9725 20.1499 -61.3202
rradius 26.1413
rwrist 32.5559
rhand -24.713 32.989
rfingers 7.12502
rthumb 1.78873 3.01674
lclavicle -1.74931e-014 6.55989e-015
lhumerus 56.7363 -15.0952 36.6581
lradius 24.9437
lwrist -16.0898
lhand -41.6613 84.9638
lfingers 7.12502
lthumb -14.5688 245.568
rfemur -21.9796 1.17424 17.7014
rtibia 37.9094
rfoot -35.9062 -18.6639
rtoes -26.5955
lfemur -81.6136 0.0888631 -23.222
ltibia 83.0516
lfoot -39.3628 11.6994
ltoes -8.96318
490
root 38.3765 13.5771 -0.0731736 -121.51 -82.013 167.605
lowerback 25.0695 -1.81855 -2.46171
upperback 8.9111 -3.5137 0.795283
thorax -3.86483 -2.01169 3.24733
lowerneck -14.8823 -0.187824 -6.05895
upperneck 35.6898 3.41242 -10.5019
head 15.2247 -1.14987 -2.87975
rclavicle 5.40694e-014 8.15017e-014
rhumerus 61.0947 20.1315 -61.2788
rradius 25.947
rwrist 32.572
rhand -24.6742 33.0461
rfingers 7.12502
rthumb 1.82619 3.07416
lclavicle 5.40694e-014 8.15017e-014
lhumerus 56.7181 -15.1443 36.7019
lradius 24.9644
lwrist -16.0502
lhand -41.4691 85.1467
lfingers 7.12502
lthumb -14.3837 245.372
rfemur -21.7527 1.13566 17.5716
rtibia 37.5812
rfoot -35.9401 -18.4247
rtoes -26.2613
lfemur -81.6515 0.146043 -23.3725
ltibia 83.2985
lfoot -39.4648 11.734
ltoes -8.35721
491
root 38.3475 13.5701 -0.0759291 -121.761 -81.9793 167.894
lowerback 25.0676 -1.8087 -2.49561
upperback 8.85376 -3.50049 0.856305
thorax -3.92143 -2.00295 3.33149
lowerneck -14.9187 -0.179394 -5.76586
upperneck 35.7717 3.5106 -11.0817
head 15.3049 -1.15554 -3.17407
rclavicle -3.4191e-014 -3.73715e-014
rhumerus 61.2926 20.1826 -60.9798
rradius 25.7733
rwrist 32.5069
rhand -24.5726 33.0905
rfingers 7.12502
rthumb 1.92433 3.11946
lclavicle -3.4191e-014 -3.73715e-014
lhumerus 56.6138 -14.7987 37.6336
lradius 24.6834
lwrist -16.8089
lhand -41.4774 85.8334
lfingers 7.12502
lthumb -14.3916 244.685
rfemur -21.5044 1.05545 17.5723
rtibia 37.2057
rfoot -35.7309 -18.5742
rtoes -26.2428
lfemur -81.6784 0.162107 -23.3882
ltibia 83.5438
lfoot -39.4298 11.7004
ltoes -7.95638
492
root 38.3177 13.5664 -0.0748926 -123.738 -82.0594 169.878
lowerback 25.1847 -1.79375 -2.27539
upperback 8.80004 -3.42699 0.930204
thorax -4.05099 -1.96181 3.27539
lowerneck -14.8938 -0.19384 -6.00657
upperneck 35.7241 3.47849 -10.8275
head 15.2632 -1.16467 -3.02294
rclavicle 7.4743e-014 1.88845e-014
rhumerus 61.3761 20.2424 -60.6636
rradius 25.7421
rwrist 32.4589
rhand -24.5173 33.1341
rfingers 7.12502
rthumb 1.97776 3.16349
lclavicle 7.4743e-014 1.88845e-014
lhumerus 56.5986 -14.7034 37.8477
lradius 24.5999
lwrist -16.9526
lhand -41.6657 85.2574
lfingers 7.12502
lthumb -14.5731 245.275
rfemur -21.2011 1.0317 17.8051
rtibia 36.7755
rfoot -35.6886 -18.4094
rtoes -26.1465
lfemur -81.6655 0.305793 -23.1438
ltibia 83.8041
lfoot -39.3263 11.6634
ltoes -7.574
493
root 38.2848 13.5634 -0.0784514 -125.893 -82.0238 172.101
lowerback 25.1443 -1.72351 -2.20366
upperback 8.75564 -3.31568 0.97743
thorax -4.08895 -1.90607 3.25529
lowerneck -14.7278 -0.191491 -5.90105
upperneck 35.4995 3.45029 -10.9116
head 15.1159 -1.15818 -3.06286
rclavicle -2.8625e-014 2.04748e-014
rhumerus 61.2652 20.2623 -60.5976
rradius 25.8277
rwrist 32.3462
rhand -24.4522 32.9899
rfingers 7.12502
rthumb 2.04063 3.01992
lclavicle -2.8625e-014 2.04748e-014
lhumerus 56.6791 -15.0227 37.0632
lradius 24.7976
lwrist -16.2319
lhand -41.8245 84.0887
lfingers 7.12502
lthumb -14.7261 246.454
rfemur -20.9571 1.099 17.9864
rtibia 36.3272
rfoot -35.7655 -18.2208
rtoes -26.284
lfemur -81.6673 0.560286 -22.9868
ltibia 84.0292
lfoot -39.5458 11.5114
ltoes -6.17611
494
root 38.25 13.5558 -0.0852826 -127.148 -81.8356 173.351
lowerback 25.1046 -1.59461 -2.38461
upperback 8.73869 -3.1937 0.990556
thorax -4.08562 -1.85005 3.33834
lowerneck -14.5893 -0.229677 -5.63995
upperneck 35.3415 3.39157 -11.2339
head 15.0167 -1.17999 -3.24282
rclavicle 1.82882e-014 1.01778e-013
rhumerus 61.1543 20.2822 -60.4759
rradius 25.8658
rwrist 32.0076
rhand -24.3999 32.8207
rfingers 7.12502
rthumb 2.09114 2.8512
lclavicle 1.82882e-014 1.01778e-013
lhumerus 56.6779 -15.138 36.9627
lradius 24.8455
lwrist -16.1258
lhand -41.5499 84.033
lfingers 7.12502
lthumb -14.4615 246.491
rfemur -20.6431 1.12395 18.0002
rtibia 35.889
rfoot -35.6294 -18.4114
rtoes -27.0702
lfemur -81.5361 0.779115 -23.0199
ltibia 84.2238
lfoot -39.7871 11.4586
ltoes -5.13395
495
root 38.2211 13.5446 -0.0947244 -128.397 -81.5935 174.631
lowerback 24.9979 -1.4115 -2.61664
upperback 8.76735 -3.01811 0.984264
thorax -4.00259 -1.77241 3.41008
lowerneck -14.7241 -0.293741 -5.48163
upperneck 35.4262 3.32474 -11.4029
head 15.0927 -1.21637 -3.36355
rclavicle 3.97569e-015 -3.85642e-014
rhumerus 61.1771 20.2171 -60.3556
rradius 26.0462
rwrist 31.9619
rhand -24.4461 32.9416
rfingers 7.12502
rthumb 2.04656 2.97167
lclavicle 3.97569e-015 -3.85642e-014
lhumerus 56.7741 -14.9735 37.3776
lradius 24.7423
lwrist -16.573
lhand -41.2109 84.2644
lfingers 7.12502
lthumb -14.1348 246.236
rfemur -20.4253 1.24223 17.9932
rtibia 35.5128
rfoot -35.3821 -18.6241
rtoes -27.5998
lfemur -81.4785 1.04418 -23.07
ltibia 84.4211
lfoot -39.7761 11.5482
ltoes -5.0969
